static_grf.mot
version=1
nRows=22
nColumns 19
inDegrees=yes
endheader
time	1_ground_force_vx	1_ground_force_vy	1_ground_force_vz	1_ground_force_px	1_ground_force_py	1_ground_force_pz	1_ground_torque_x	1_ground_torque_y	1_ground_torque_z	2_ground_force_vx	2_ground_force_vy	2_ground_force_vz	2_ground_force_px	2_ground_force_py	2_ground_force_pz	2_ground_torque_x	2_ground_torque_y	2_ground_torque_z
            0.005000	            1.499351	          251.212825	          -22.818176	           -0.259724	            0.006406	           -0.449039	            0.007583	            1.270475	           -0.115400	           -2.724607	          225.668880	           26.053691	           -0.222503	            0.005866	           -0.749690	            0.008195	           -0.678760	           -0.078364
            0.005500	            1.407827	          251.572945	          -22.724691	           -0.259630	            0.006403	           -0.448374	            0.007082	            1.265558	           -0.114318	           -2.772745	          226.036658	           26.148881	           -0.222711	            0.005866	           -0.750071	            0.009732	           -0.793324	           -0.091775
            0.006000	            1.499528	          252.113563	          -22.676743	           -0.259861	            0.006403	           -0.448471	            0.007494	            1.259997	           -0.113332	           -2.908663	          224.747272	           26.097413	           -0.222515	            0.005864	           -0.749258	            0.009545	           -0.737557	           -0.085644
            0.006500	            1.361382	          251.754185	          -22.953083	           -0.259468	            0.006404	           -0.448649	            0.006809	            1.259186	           -0.114803	           -2.867795	          226.404799	           26.103307	           -0.222266	            0.005867	           -0.749877	            0.009090	           -0.717598	           -0.082735
            0.007000	            1.682429	          251.573785	          -22.908797	           -0.259929	            0.006404	           -0.448770	            0.008904	            1.331438	           -0.121243	           -3.003774	          225.115915	           25.911055	           -0.222142	            0.005867	           -0.749647	            0.009143	           -0.685179	           -0.078865
            0.007500	            1.682394	          253.015517	          -22.810901	           -0.260085	            0.006399	           -0.447502	            0.008724	            1.312043	           -0.118289	           -2.912027	          225.668371	           26.006842	           -0.222497	            0.005866	           -0.749770	            0.008928	           -0.691853	           -0.079732
            0.008000	            1.728452	          251.213066	          -22.864601	           -0.259529	            0.006406	           -0.449042	            0.008833	            1.283779	           -0.116845	           -2.869768	          226.957053	           26.152206	           -0.222760	            0.005866	           -0.750078	            0.009828	           -0.777283	           -0.089566
            0.008500	            1.591264	          251.212449	          -22.726692	           -0.259634	            0.006405	           -0.448947	            0.008072	            1.274322	           -0.115285	           -3.098762	          225.483523	           26.006265	           -0.222638	            0.005866	           -0.749781	            0.009991	           -0.726966	           -0.083845
            0.009000	            1.407827	          251.572945	          -22.724691	           -0.259497	            0.006407	           -0.449271	            0.006865	            1.226715	           -0.110810	           -2.959603	          225.852845	           25.866735	           -0.222765	            0.005865	           -0.749755	            0.008873	           -0.677078	           -0.077545
            0.009500	            1.544996	          252.294428	          -22.813652	           -0.259814	            0.006403	           -0.448353	            0.008011	            1.308168	           -0.118291	           -2.725854	          226.036492	           26.242717	           -0.222233	            0.005867	           -0.749741	            0.008993	           -0.745762	           -0.086583
            0.010000	            1.499399	          251.573160	          -22.770774	           -0.259675	            0.006405	           -0.448976	            0.007778	            1.304992	           -0.118119	           -2.958212	          225.484031	           26.006205	           -0.222656	            0.005864	           -0.749285	            0.009064	           -0.690891	           -0.079684
            0.010500	            1.499384	          251.032559	          -22.818949	           -0.259718	            0.006406	           -0.449177	            0.007975	            1.335281	           -0.121378	           -2.822356	          226.773919	           25.916889	           -0.222597	            0.005868	           -0.750260	            0.009469	           -0.760820	           -0.086950
            0.011000	            1.407470	          251.032935	          -22.910433	           -0.259391	            0.006406	           -0.449197	            0.006993	            1.247317	           -0.113836	           -2.580837	          224.749460	           25.815705	           -0.222421	            0.005865	           -0.749261	            0.008792	           -0.765648	           -0.087946
            0.011500	            1.498731	          252.114940	          -22.997735	           -0.260003	            0.006403	           -0.448450	            0.007506	            1.262596	           -0.115173	           -3.005604	          225.667028	           26.288451	           -0.222567	            0.005866	           -0.749768	            0.009474	           -0.711361	           -0.082868
            0.012000	            1.544867	          251.754024	          -22.907683	           -0.259645	            0.006405	           -0.448860	            0.008022	            1.307333	           -0.118957	           -3.056503	          226.772236	           26.151629	           -0.222527	            0.005868	           -0.750424	            0.009814	           -0.728148	           -0.083971
            0.012500	            1.544948	          251.934093	          -22.861054	           -0.259321	            0.006404	           -0.448713	            0.008131	            1.325898	           -0.120315	           -2.960268	          226.036985	           25.867392	           -0.222594	            0.005866	           -0.749906	            0.009187	           -0.701473	           -0.080276
            0.013000	            1.635984	          251.755025	          -23.137190	           -0.259489	            0.006406	           -0.449122	            0.008268	            1.272299	           -0.116929	           -2.959562	          225.852510	           25.960591	           -0.222718	            0.005866	           -0.750001	            0.010090	           -0.770017	           -0.088509
            0.013500	            1.408054	          251.572552	          -22.632979	           -0.259640	            0.006404	           -0.448658	            0.006970	            1.245319	           -0.112036	           -2.908745	          224.747941	           25.909701	           -0.221758	            0.005867	           -0.749341	            0.009693	           -0.748904	           -0.086336
            0.014000	            1.544556	          252.835815	          -22.948901	           -0.259694	            0.006400	           -0.447816	            0.007765	            1.271063	           -0.115369	           -2.911383	          225.484367	           25.959257	           -0.222379	            0.005868	           -0.750033	            0.009640	           -0.746584	           -0.085952
            0.014500	            1.453313	          251.032944	          -22.910547	           -0.259648	            0.006406	           -0.449119	            0.007736	            1.336270	           -0.121955	           -2.861375	          224.565141	           25.580527	           -0.222445	            0.005865	           -0.749358	            0.009011	           -0.707235	           -0.080562
            0.015000	            1.591330	          250.851918	          -22.728238	           -0.259592	            0.006405	           -0.449001	            0.008137	            1.282678	           -0.116216	           -2.863183	          225.116088	           26.004851	           -0.222530	            0.005864	           -0.749313	            0.009449	           -0.742926	           -0.085821
            0.015500	            1.545080	          251.213030	          -22.864146	           -0.259864	            0.006407	           -0.449344	            0.007843	            1.275169	           -0.116059	           -3.002465	          224.747770	           25.862813	           -0.222438	            0.005865	           -0.749424	            0.009757	           -0.730382	           -0.084049
